# xmcd CD database file
# Copyright (C) 1993-1998 Ti Kan
#
# Track frame offsets:
#	150
#	28047
#	44012
#	66762
#	78882
#	94622
#	110285
#	126210
#	142507
#	151295
#	166260
#	179365
#	194807
#	209442
#	232650
#
# Disc length: 3247 seconds
#
# Revision: 1
# Processed by: cddbd v1.4b41PL1 Copyright (c) Steve Scherf et al.
# Submitted via: CDValet v3.31 - Copyright (c) 1997 Greg Leichner
#
DISCID=c00cad0f
DTITLE=B.B. King - Sweet Sixteen
DYEAR=1900
DGENRE=
TTITLE0=Sweet Sixteen
TTITLE1=That Evil Child
TTITLE2=Everyday I Have The Blues
TTITLE3=Paying The Cost To Be The Boss
TTITLE4=How Blue Can You Get
TTITLE5=The Letter
TTITLE6=Long Nights
TTITLE7=The Other Night Blues
TTITLE8=A New Way Of Driving
TTITLE9=B.B. Boogie
TTITLE10=Walkin' And Cryin'
TTITLE11=It's My Own Fault Baby
TTITLE12=Mr. Pawnbroker
TTITLE13=You've Done Lost Your Good Thing Now
TTITLE14=Catfish Blues
EXTD=
EXTT0=
EXTT1=
EXTT2=
EXTT3=
EXTT4=
EXTT5=
EXTT6=
EXTT7=
EXTT8=
EXTT9=
EXTT10=
EXTT11=
EXTT12=
EXTT13=
EXTT14=
PLAYORDER=
